<?xml version="1.0" encoding="utf-8"?>
<!-- Generator: Adobe Illustrator 26.0.1, SVG Export Plug-In . SVG Version: 6.00 Build 0)  -->
<svg version="1.1" id="图层_1" xmlns="http://www.w3.org/2000/svg" xmlns:xlink="http://www.w3.org/1999/xlink" x="0px" y="0px"
	 viewBox="0 0 618 425.2" style="enable-background:new 0 0 618 425.2;" xml:space="preserve">
<style type="text/css">
	.st0{fill:#040000;}
	.st1{fill:url(#SVGID_1_);}
	.st2{fill:none;stroke:#000000;stroke-miterlimit:10;}
	.st3{fill:url(#SVGID_00000142172521718435026480000001489175548260695469_);}
</style>
<path class="st0" d="M230.9,257.1L230.9,257.1c0.3,0.4,0.7,0.8,1,1.3"/>
<linearGradient id="SVGID_1_" gradientUnits="userSpaceOnUse" x1="128.5721" y1="389.4403" x2="485.3956" y2="32.6169">
	<stop  offset="0" style="stop-color:#35489C"/>
	<stop  offset="1" style="stop-color:#3599D6"/>
</linearGradient>
<path class="st1" d="M538.4,330.5c-1.9-12.1-3.6-21.6-4.5-26.7c-22.2-125.3-58.1-235.3-63-262.2c-1.1-6.1-3.1-12-4.3-18.1
	c-1.1-5.7-1.8-10-5-14.5c-1.3-1.9-5.6-5.6-5.9-5.8c-0.1-0.1-0.2-0.1-0.4-0.3c-0.2-0.1-0.3-0.2-0.4-0.3c-0.1,0-0.2,0-0.2,0
	c-0.1,0-0.2,0.1-0.3,0.1c-0.1,0.1-0.2,0.1-0.3,0.3c-0.2,0.2-0.3,0.3-0.3,0.3c0,0-5.3,5.8-7.1,8.9c-0.4,0.7-0.7,1.3-0.7,1.3
	c-0.3,0.7-0.4,1.1-1.5,3.1c-2.1,4-4.2,6.8-5.2,8c-0.2,0.3-0.4,0.5-0.4,0.6c-15.3,19.4-43.1,88.2-43.1,88.2
	c-21.1,52.1-50.8,88.3-63.3,117.1c-0.6,1.3-2.3,5.3-5.2,10.3c-5.4,9.2-13.3,16.5-15.6,19.4c-0.3,0.4-0.6,0.7-1.2,1.3
	c-0.6,0.6-1,1-1.6,1.3c-0.2,0.1-0.4,0.2-0.6,0.3c-0.2,0-0.4-0.1-0.6-0.2c-0.8-0.3-1.3-0.7-1.6-0.9c-1.5-1.1-2-1.7-2-1.7
	c-2.9-3.1-7-6.3-10.4-10.7c-5.1-6.6-7.7-14.3-8.9-18.8c-20-42.5-38.2-79.7-53.8-110.8c0,0-28.4-56.8-49.1-90.3
	c-4.5-7.3-9.6-15.6-9.6-15.6c0-0.1,0-0.1,0-0.1c-1-1.6-1.8-2.9-2.4-3.8c-0.7-0.8-2.1-2.6-4-4.8c-3.6-4.4-4.5-5.6-5.6-5.4
	c-1.1,0.2-1.6,1.7-3,5.6c-1.3,3.7-2.5,6.6-3.3,8.5c-0.7,2.9-1.8,7.7-2.5,10.8c-40.3,173.3-60.5,259.9-66.2,277
	c-2,6-2.6,9.4-3.8,16.1c-2.4,13.2-3.5,19.9-0.1,24c1.8,2.1,4.7,3.8,22.6,3.7c10.9,0,19.9-0.6,26.2-1.2c5.8-0.6,11.7-1.1,17.6-1.6
	c51.3-4,99.9-2.9,145.2,1.6c2.2,9.1,3.9,16.6,3.9,21.6c-0.1,7.3-1.2,22.9,5,42.3c1.6,5,6.6,16.1,6.6,16.3c0,0,0,0.1,0.1,0.2
	c0.1,0.1,0.1,0.2,0.1,0.3c0,0,0.1,0.1,0.1,0.1c0,0,0,0,0.1-0.1c0.1-0.1,0.1-0.2,0.2-0.4c0-0.1,0.1-0.1,0.1-0.2
	c4.5-9.2,7.9-18.4,7.9-18.4c1.3-3.6,4.1-11,6.2-19.9c3.8-15.7,4.4-28.6,5.8-41.7c14.2,1.5,35.9,3,62.6,1.4c12.2-0.7,18-1.7,28.9-2.6
	c17.1-1.4,42-2.1,73.4,1.1c6.3,1,13.9,1.6,22.5,1.3c5.1-0.2,8.8-0.7,11.6-1.3h0v0c4.8-1.1,6.6-2.7,7.6-3.9
	C538.2,337.3,538.5,333.1,538.4,330.5z M132.4,321.8c0,0,0-0.1,0-0.2c0-0.1,0-0.2,0-0.3c0-0.1,0-0.2,0-0.3c0.1-1,4.2-53,14.9-85.2
	c0.5-1.4,1.5-4.4,2.9-8.9c1.8-5.8,4.2-13.9,6.6-23.5c2.1-8.5,3.7-16,6.5-29.1c2.4-11.2,4.2-20.4,5.5-26.9
	c2.3-18.6,5.7-22.6,8.2-22.9c4.7-0.6,9.2,11.1,24.4,40.8c5.7,11.1,10.4,20,13.4,25.6c16.8,26,41.3,66.6,61.4,112.4
	c0.6,1.4,7.5,17.3,7.7,17.6c0,0,0.1,0.2,0.2,0.4c0,0.1,0.1,0.3,0.1,0.3c-0.1,0-0.2,0.1-0.3,0.1c-0.2,0-0.3,0-0.3,0
	c-0.3,0-12.7,1.4-29.7,1.6c-3.4,0-18,0.3-37.8-1.7c-5.3-0.5-7.6-0.9-12.5-1.3c0,0-32.3-3-70.3,1.2c-0.3,0-0.4,0-0.4,0
	c-0.1,0-0.1,0-0.2,0c0,0-0.1,0-0.1,0C132.5,321.9,132.4,321.9,132.4,321.8z M334.3,316.9c4-13.1,6.1-12.6,25.9-47.9
	c10.8-19.3,26.2-47.8,43.2-84.3c5.2-9,10.5-18.2,16-27.4c0,0,11.1-18.6,20.4-33.3c0,0,0.1-0.1,0.1-0.2c0,0,0-0.1,0.1-0.1
	c0,0,0.1-0.1,0.1-0.1c0,0,0.1,0,0.1,0.1c0,0,0,0.1,0.1,0.1c0,0.1,0,0.1,0.1,0.1c9.3,23.7,12.2,34.5,12.2,34.5
	c2.5,9.2,3.4,15,3.8,19.3c0.2,2.5,0.7,11.9,4.1,23.9c1.4,4.8,2.8,8.6,3.7,11c1.6,4.6,3.2,9.3,4.7,14c13.1,41.3,20.8,94.8,20.8,94.8
	c0,0,0,0.2,0,0.2c0,0,0,0.1,0,0.1c0,0,0,0.1,0,0.1c0,0-0.1,0-0.2,0c-0.2,0-0.3,0-0.3,0c-0.4-0.1-54.7-1.9-74.1-1.4
	c-4.1,0.1-7.6,0.3-7.6,0.3c-2.2,0.1-3.7,0.2-6,0.3c0,0-3.6,0.2-8.8,0.4c-17.1,0.6-58.9,0.4-59.1,0.4c-0.1,0-0.1,0-0.2,0
	c0,0-0.1,0-0.1,0c0,0-0.1,0-0.1,0c0-0.1,0-0.1,0-0.2c0,0,0-0.1,0-0.1c0,0,0-0.1,0-0.2C333.1,321.3,334.1,317.5,334.3,316.9z"/>
<path class="st2" d="M9275.9,2431.5c-6.4-40.1-11.9-71.6-14.8-88.5c-73.7-415.7-192.8-780.5-209.1-869.7
	c-3.7-20.2-10.2-39.8-14.2-60c-3.8-18.9-6-33.2-16.7-48.2c-4.4-6.2-18.7-18.6-19.6-19.3c-0.2-0.2-0.5-0.4-1.2-0.9
	c-0.6-0.5-0.9-0.8-1.4-0.9c-0.3-0.1-0.6-0.1-0.8-0.1c-0.2,0.1-0.6,0.2-1,0.5c-0.3,0.2-0.5,0.4-1,0.9c-0.8,0.8-1,1-1,1
	s-17.7,19.4-23.6,29.4c-1.3,2.3-2.4,4.4-2.4,4.4c-1.1,2.4-1.4,3.6-5,10.4c-7.1,13.2-14.1,22.7-17.1,26.6c-0.8,1-1.4,1.8-1.5,1.9
	c-50.7,64.4-142.9,292.7-142.9,292.7c-69.8,172.8-168.3,293-209.9,388.5c-1.9,4.4-7.6,17.5-17.4,34.1c-18,30.4-44.1,54.8-51.6,64.4
	c-1,1.3-2,2.3-3.9,4.3c-1.9,2-3.3,3.3-5.4,4.4c-0.8,0.4-1.5,0.7-1.9,0.9c-0.5-0.1-1.2-0.3-2.1-0.6c-2.6-0.9-4.4-2.2-5.4-3
	c-4.9-3.8-6.8-5.8-6.8-5.8c-9.7-10.4-23.1-20.9-34.5-35.6c-17-21.8-25.5-47.5-29.5-62.3c-66.5-141-126.8-264.4-178.3-367.6
	c0,0-94.1-188.5-162.7-299.6c-15-24.3-32-51.7-32-51.7c-0.1-0.2-0.2-0.3-0.2-0.3c-3.4-5.4-6.1-9.7-7.8-12.5
	c-2.2-2.7-7.1-8.5-13.2-16.1c-12.1-14.7-15.1-18.5-18.6-17.9c-3.7,0.6-5.2,5.8-9.9,18.6c-4.4,12.2-8.3,21.9-10.8,28.2
	c-2.2,9.7-5.9,25.5-8.3,35.7c-133.8,574.7-200.7,862.1-219.7,918.5c-6.7,19.8-8.7,31-12.7,53.5c-7.9,43.9-11.7,66.1-0.4,79.7
	c5.9,7.1,15.6,12.5,75,12.4c36.1-0.1,66-2.1,87-4c19.3-1.9,38.8-3.6,58.5-5.2c170-13.2,331.2-9.6,481.7,5.2
	c7.2,30.3,12.9,55,12.8,71.7c-0.2,24.3-3.8,76,16.5,140.2c5.3,16.7,21.8,53.4,22,54c0,0.1,0.1,0.2,0.3,0.6c0.2,0.5,0.2,0.7,0.5,1
	c0.1,0.1,0.2,0.2,0.3,0.2c0.1,0,0.2-0.1,0.3-0.2c0.3-0.3,0.3-0.6,0.6-1.2c0.1-0.3,0.2-0.4,0.2-0.5c14.8-30.7,26.1-61.2,26.1-61.2
	c4.4-11.9,13.5-36.5,20.7-66.1c12.7-52.2,14.5-94.9,19.2-138.4c47.2,5.1,119.2,10.1,207.6,4.7c40.6-2.5,59.7-5.6,96-8.5
	c56.8-4.5,139.4-7.1,243.4,3.8c20.8,3.5,46,5.3,74.6,4.2c17-0.6,29.3-2.2,38.4-4.2h0.1v0c16-3.6,21.8-8.8,25.3-13.1
	C9275.4,2454,9276.3,2440.3,9275.9,2431.5z M7929.4,2402.7c0-0.1,0-0.3,0-0.6c0-0.4,0.1-0.7,0.1-1c0.1-0.4,0.1-0.7,0.1-1.1
	c0.4-3.4,14-175.6,49.3-282.5c1.5-4.6,4.9-14.6,9.5-29.4c6-19.2,13.9-45.9,21.8-77.9c7-28.1,12.3-52.9,21.4-96.5
	c7.8-37,14-67.8,18.1-89.1c7.8-61.7,18.8-74.8,27.2-75.9c15.7-2,30.5,36.7,80.8,135.3c18.7,36.7,34.5,66.3,44.5,84.9
	c55.8,86.3,137.1,220.9,203.7,372.8c2.1,4.7,24.8,57.2,25.5,58.5c0,0.1,0.3,0.6,0.6,1.3c0.1,0.4,0.2,0.8,0.3,1.2
	c-0.2,0.1-0.5,0.3-0.9,0.3c-0.6,0.1-1,0.1-1.1,0.1c-1.1-0.1-42,4.7-98.4,5.3c-11.3,0.1-59.7,0.9-125.4-5.5
	c-17.5-1.7-25.1-2.9-41.5-4.4c0,0-107.2-9.8-233,4.1c-0.9,0.1-1.2,0.1-1.2,0.1c-0.2,0-0.5,0.1-0.7,0.1c-0.1,0-0.2,0-0.4,0
	C7929.7,2403,7929.5,2402.8,7929.4,2402.7z M8599.2,2386.4c13.2-43.3,20.2-41.9,86-159c35.9-63.9,86.8-158.7,143.2-279.6
	c17.2-30,34.9-60.3,53.2-90.9c0,0,36.7-61.6,67.6-110.4c0.1-0.1,0.2-0.3,0.4-0.6c0.1-0.2,0.1-0.3,0.3-0.4c0.1-0.1,0.3-0.2,0.4-0.2
	c0.1,0,0.2,0.1,0.3,0.3c0.1,0.1,0.1,0.2,0.2,0.5c0.1,0.2,0.1,0.4,0.2,0.5c30.7,78.6,40.4,114.4,40.4,114.4
	c8.2,30.4,11.4,49.8,12.5,64c0.6,8.3,2.4,39.5,13.6,79.2c4.5,16,9.3,28.7,12.4,36.5c5.3,15.2,10.5,30.7,15.5,46.4
	c43.5,136.9,69,314.5,69,314.5c0,0.1,0.1,0.5,0.1,0.6c0.1,0.2,0.1,0.3,0.1,0.5c0,0.1,0,0.2-0.1,0.3c-0.1,0-0.3,0.1-0.6,0.1
	c-0.5,0-0.9-0.1-0.9-0.1c-1.3-0.2-181.6-6.4-245.8-4.5c-13.6,0.4-25.1,0.9-25.1,0.9c-7.1,0.4-12.1,0.7-20,1.1c0,0-11.9,0.6-29.3,1.2
	c-56.7,2-195.2,1.4-196,1.4c-0.2,0-0.5,0-0.7,0c-0.2,0-0.3,0-0.5,0c-0.2,0-0.3-0.1-0.4-0.2c-0.1-0.2-0.1-0.4-0.1-0.5
	c0-0.1,0-0.2,0.1-0.5c0-0.2,0.1-0.3,0.1-0.5C8595.1,2400.9,8598.5,2388.5,8599.2,2386.4z"/>
<g>
	<path d="M1016.1,107.5l0.1,6.6c-0.1,0.2-0.1,0.4-0.2,0.6c-0.1,0.1-0.5,0-1.1-0.1h-0.3c-0.3,0-0.5,0-0.8,0.1
		c-0.3,0.1-0.5,0.1-0.8,0.1c-0.2-0.4-0.3-1.7-0.2-3.8c0.1-1.9,0.1-4.2,0.1-6.8c-0.1-0.6-0.2-1.6-0.1-3c-0.6,0-1.1,0-1.4,0.1
		c-0.4,0-0.8,0-1,0c-0.1,0-0.4,0-0.6,0.1c-0.4,0.1-0.6,0.2-0.8,0.1c-0.4,0-0.5-0.1-0.4-0.4c0-0.5,0-1,0-1.5c0-0.3,0.1-0.5,0.4-0.8
		c0.1,0,0.2,0,0.4,0c0.3-0.1,0.5-0.1,0.8-0.1c0.4,0,0.6,0,0.9,0.1c2.9,0,5.8,0,8.8,0c0.4,0,0.5,0.1,0.5,0.3
		c-0.1,0.4-0.1,0.8-0.1,1.3c0.1,0.3,0.1,0.5,0.1,0.5c0,0.3-0.2,0.4-0.5,0.3c-0.5,0-1,0-1.6,0c-0.5-0.1-1.2-0.1-2.2-0.1
		C1016.1,104.2,1016.1,106.3,1016.1,107.5z"/>
	<path d="M1025.7,104.6v0.2c2.4,0,4.8,0,7.1,0h0.1c0.4,0,0.6,0.1,0.6,0.3c0,0.6,0,1.1,0,1.6c0,0.3-0.2,0.4-0.5,0.3
		c-0.9,0-3.4,0-7.5,0l-0.1,1.1c0,0.9,0,2.1,0,3.7c0.8,0,2.1,0,3.9,0.1c1.6,0,2.7,0,3.5,0h0.1c0.4,0,0.6,0.1,0.6,0.2
		c0,0.6,0,1.2,0,1.7c0,0.1-0.2,0.2-0.5,0.2c-0.8,0-2.2,0-4.2,0c-2.2-0.1-3.8-0.1-4.7-0.1c-0.4,0.1-0.9,0.1-1.5,0.1
		c-0.6-0.3-1-0.8-1-1.4c-0.1-0.1,0-0.4,0.3-0.9c0.2-0.4,0.3-0.6,0.3-0.9c0-1.2,0-2.8,0-5.1c0-2.2,0-3.9,0-5.1c0-0.1-0.1-0.3-0.2-0.5
		c-0.2-0.4-0.3-0.8-0.3-1.2c0.1-0.6,0.6-0.9,1.3-1.1c0.4,0,0.9,0,1.3,0.1l0.1,0.1c0.1,0,0.3,0,0.4,0c1.4,0.1,2.8,0.1,4.2,0
		c1.4-0.1,2.9-0.1,4.3-0.1c0.5,0,0.8,0.1,0.8,0.3c0,0.6,0,1.2,0,1.7c0,0.3-0.2,0.4-0.5,0.3c-2.5,0-4.9,0-7.1,0h-0.6
		C1025.7,101.1,1025.7,102.4,1025.7,104.6z"/>
	<path d="M1048.3,108.6h1.6c0.4,0.1,0.6,0.2,0.6,0.4c-0.6,3-3.1,4.7-7.5,5c-5,0-7.6-2.3-7.8-6.8c0.4-5.7,2.4-8.8,6.1-9.3
		c5.8-0.5,8.7,1.7,8.8,6.5c-0.1,0.6-0.8,1-2.1,1c-0.2,0-0.4,0-0.4-0.1l-0.4-0.3c0-3-1.3-4.6-4-4.7c-2.9,0.3-4.4,2.6-4.5,6.8
		c0.1,2.9,1.4,4.4,3.7,4.5c2.9,0.1,4.7-0.9,5.4-2.8l0.5-0.1V108.6z"/>
	<path d="M1067.2,105.5v1.5c-0.1,0.9-0.1,2.1,0,3.5c0.1,1.4,0.1,2.5,0.1,3.4c-0.1,0.2-0.2,0.3-0.4,0.3c-0.4,0-0.8,0-1.1,0
		c-0.3,0-0.6,0-1,0c-0.1,0-0.3,0-0.4,0c-0.4,0-0.6-0.1-0.5-0.3c0-0.3,0-0.5,0-0.8c0.1-0.9,0.2-2,0.1-3.5c0-0.4,0-1,0-1.6v-0.5
		l-8.1,0.1c0,0.8,0,1.8,0,3.1c0.1,1.4,0.2,2.5,0.2,3.2c0,0.1-0.2,0.2-0.5,0.2c-0.4,0-0.7,0-1.1,0c-0.2,0-0.5,0-0.9,0
		c-0.1,0-0.3,0-0.4,0c-0.4,0-0.6-0.1-0.5-0.3c0-0.2,0-0.5,0-0.8c0.1-0.9,0.2-2.1,0.1-3.6c0-0.5,0-1,0-1.6c0-2.3,0-4.7,0-7
		c0-0.2,0-0.5-0.1-1c-0.1-0.4-0.1-0.7,0-1l-0.1-0.1c0-0.4,0.2-0.6,0.5-0.6c0.1,0,0.3,0,0.5,0.1c0.8,0.1,1.3,0,1.6-0.1
		c0.6,0,0.9,0.4,0.9,1.1c0,0.5-0.1,0.9-0.2,1.2c0,1.7,0,3.3,0,4.8h8.2v-4.2c0-0.2,0-0.5-0.1-1c-0.1-0.4-0.2-0.7-0.1-1
		c-0.1-0.5,0.1-0.8,0.5-0.8c0.1,0,0.2,0,0.4,0.1c0.9,0.1,1.4,0,1.6-0.1c0.7,0,1,0.4,1,1.1c-0.1,0.5-0.1,0.9-0.2,1.2
		c-0.1,1.2-0.1,2.2-0.1,2.8C1067.2,104,1067.2,104.7,1067.2,105.5z"/>
	<path d="M1079,114.1l-5.7-11.3l-0.1,10.8v0.4h-0.2c-0.6,0-1,0-1.4-0.1c-0.5,0.1-0.9,0.1-1.3,0.1h-0.2l-0.1-0.1c-0.1,0-0.1,0,0-0.1
		c0-0.9,0-2.4,0.1-4.5c0.2-3.4,0.4-5.8,0.4-7.4c0-0.4-0.1-0.8-0.3-1.2c-0.1-0.4-0.2-0.7-0.2-1c0.8-0.6,2.1-1,4-1.2
		c0.9,0,1.4,0.4,1.5,1.1c0.9,3,2.5,6.4,4.5,10.3c0,0.1,0.1,0.2,0.2,0.1c0.2,0.1,0.3,0,0.3-0.2c0-0.7,0.1-4.2,0.2-10.4
		c-0.1-0.2-0.2-0.6-0.1-1.2c0-0.1,0.6-0.3,1.9-0.3c0.3,0,0.6,0,0.9-0.1c0.4,0.1,0.6,0.3,0.6,0.5c0,0.1,0,0.4-0.1,0.6
		c-0.1,0.3-0.1,0.5,0,0.5c-0.1,1.2-0.2,3.2-0.3,5.8c-0.1,2.9-0.2,5.6-0.2,8.2c0,0.1,0,0.3-0.1,0.4c-0.6,0.1-1.4,0.1-2.6,0.1
		C1080.1,114.1,1079.6,114.1,1079,114.1z"/>
	<path d="M1086.5,106.6c0.3-5.3,2.7-8,7.2-8.2c5.6,0.4,8.8,3.1,9.4,8.3c-0.6,4.9-3.2,7.4-7.8,7.6
		C1089.6,114.2,1086.7,111.6,1086.5,106.6z M1095,101.1c-3.2-0.1-4.9,2-5,6.2c0.4,2.9,1.9,4.4,4.8,4.5c3-0.4,4.7-2.3,4.9-5.7
		C1098.9,103.5,1097.4,101.9,1095,101.1z"/>
	<path d="M1105.4,101c0-0.1-0.1-0.2-0.2-0.4c-0.3-0.5-0.4-0.9-0.2-1.2c0.3-0.5,0.8-0.8,1.5-0.9c1-0.1,1.8,0.1,2.3,0.6
		c0.1,0.2,0.1,0.4,0.1,0.6c0,0.6-0.1,1.4-0.2,2.4c-0.1,1-0.2,1.8-0.1,2.3c0,0.8,0,1.9-0.1,3.2c-0.1,1.4-0.1,2.5,0,3.2
		c0,0.9,2,1.1,5.9,0.8c0.1-0.1,0.3-0.1,0.3-0.1l0.2,0.1c0.1,0.1,0.1,0.1,0.2,0c0,0.4,0,0.8,0.1,1c0,0.4-0.1,0.8-0.2,1.2
		c-1.2,0.2-3.4,0.3-6.4,0.2c-0.9,0-1.6,0-2.3,0c-0.4,0-0.7-0.1-1-0.2c-0.5-0.3-0.6-3.7-0.2-10.3
		C1105.3,102.2,1105.4,101.3,1105.4,101z"/>
	<path d="M1116.9,106.6c0.3-5.3,2.7-8,7.2-8.2c5.6,0.4,8.8,3.1,9.4,8.3c-0.6,4.9-3.2,7.4-7.8,7.6
		C1120,114.2,1117.1,111.6,1116.9,106.6z M1125.4,101.1c-3.2-0.1-4.9,2-5,6.2c0.4,2.9,1.9,4.4,4.8,4.5c3-0.4,4.7-2.3,4.9-5.7
		C1129.3,103.5,1127.8,101.9,1125.4,101.1z"/>
	<path d="M1149.3,103.7h-1.8c-0.2-0.1-0.4-0.5-0.6-1.1c-0.7-1.7-1.8-2.6-3.4-2.6c-3.2,0.1-4.9,2.2-5,6.2c0.1,3.2,1.6,5,4.3,5.4
		c3-0.2,4.6-1.4,4.9-3.6c-1,0-2,0-3,0c-0.5,0.1-0.8,0-1-0.2c-0.1-0.1-0.1-0.4,0-1l-0.1-0.2c-0.1-0.3,0-0.5,0.1-0.8
		c0.2-0.1,0.5-0.1,0.8-0.2c0.4,0,2.3-0.1,5.9-0.3c0.4,0.1,0.5,0.4,0.5,0.9c-0.2,4.9-2.8,7.5-7.9,7.9c-4.8-0.1-7.3-3-7.6-8.8
		c0.1-4.2,2-6.7,5.5-7.5c5.6-0.6,8.7,1.1,9.3,5.1C1150.3,103.5,1150,103.8,1149.3,103.7z"/>
	<path d="M1163.3,113.9l-0.3,0.2c-0.6,0-1.3,0-1.8,0c-0.4,0-0.7,0-1.1,0l-0.2-0.2c-0.2-0.6-0.3-1.8-0.1-3.4c0.1-0.9,0.2-1.6,0.2-2.1
		c-3.5-3.8-5.6-6.3-6.1-7.5c-0.5-0.5-0.8-0.9-0.8-1.3c0-0.3,0.4-0.6,1.1-0.9c0.4-0.4,0.9-0.6,1.4-0.6c0.4,0.1,0.6,0.5,0.8,1.4
		c0.7,1.4,2.5,3.5,5.3,6.3c1.7-1.9,3.2-4.1,4.5-6.6c0.1-0.9,0.4-1.4,0.9-1.4c0.2,0,0.6,0.2,1.1,0.6c0.1,0.1,0.3,0.1,0.3,0.1
		c0.1,0.1,0.1,0.1,0.2,0.2c0.7,0.2,1.1,0.5,1.1,0.8c-0.1,0.3-0.4,0.7-0.9,1.2c-1.6,2.3-3.4,4.8-5.5,7.5c0,0.6,0,1.1,0,1.6
		C1163.5,111.8,1163.5,113.2,1163.3,113.9z"/>
	<path d="M1191.4,108.6h1.6c0.4,0.1,0.6,0.2,0.6,0.4c-0.6,3-3.1,4.7-7.5,5c-5,0-7.6-2.3-7.8-6.8c0.4-5.7,2.4-8.8,6.1-9.3
		c5.8-0.5,8.7,1.7,8.8,6.5c-0.1,0.6-0.8,1-2.1,1c-0.2,0-0.4,0-0.4-0.1l-0.4-0.3c0-3-1.3-4.6-4-4.7c-2.9,0.3-4.4,2.6-4.5,6.8
		c0.1,2.9,1.4,4.4,3.7,4.5c2.9,0.1,4.7-0.9,5.4-2.8l0.5-0.1V108.6z"/>
	<path d="M1195.4,106.6c0.3-5.3,2.7-8,7.2-8.2c5.6,0.4,8.8,3.1,9.4,8.3c-0.6,4.9-3.2,7.4-7.8,7.6
		C1198.6,114.2,1195.6,111.6,1195.4,106.6z M1203.9,101.1c-3.2-0.1-4.9,2-5,6.2c0.4,2.9,1.9,4.4,4.8,4.5c3-0.4,4.7-2.3,4.9-5.7
		C1207.9,103.5,1206.3,101.9,1203.9,101.1z"/>
	<path d="M1216.7,109.9c1.6,0.1,2.4,0.8,2.5,2.3c-0.1,1.3-0.9,2-2.5,2.1c-1.6-0.1-2.4-0.7-2.4-1.9
		C1214.4,110.8,1215.2,110,1216.7,109.9z"/>
	<path d="M1223.6,110.9h0.3c1.2-0.1,1.7,0.2,1.7,0.8c-0.1,0.6-0.3,1.4-0.6,2.4c-0.3,0.6-0.4,1.2-0.4,1.6h-0.1c0,0.6-0.3,1-1,1
		c-0.1,0-0.1,0-0.2,0c-1,0-1.5-0.3-1.4-0.9c0-0.5,0.1-1.2,0.3-2.1c0.1-0.8,0.3-1.4,0.3-1.8C1222.5,111.1,1222.9,110.8,1223.6,110.9z
		"/>
	<path d="M1228.5,101c0-0.1-0.1-0.2-0.2-0.4c-0.3-0.5-0.4-0.9-0.2-1.2c0.3-0.5,0.8-0.8,1.5-0.9c1-0.1,1.8,0.1,2.3,0.6
		c0.1,0.2,0.1,0.4,0.1,0.6c0,0.6-0.1,1.4-0.2,2.4c-0.1,1-0.2,1.8-0.1,2.3c0,0.8,0,1.9-0.1,3.2c-0.1,1.4-0.1,2.5,0,3.2
		c0,0.9,2,1.1,5.9,0.8c0.1-0.1,0.3-0.1,0.3-0.1l0.2,0.1c0.1,0.1,0.1,0.1,0.2,0c0,0.4,0,0.8,0.1,1c0,0.4-0.1,0.8-0.2,1.2
		c-1.2,0.2-3.4,0.3-6.4,0.2c-0.9,0-1.6,0-2.3,0c-0.4,0-0.7-0.1-1-0.2c-0.5-0.3-0.6-3.7-0.2-10.3
		C1228.4,102.2,1228.5,101.3,1228.5,101z"/>
	<path d="M1247.2,107.5l0.1,6.6c-0.1,0.2-0.1,0.4-0.2,0.6c-0.1,0.1-0.5,0-1.1-0.1h-0.3c-0.3,0-0.5,0-0.8,0.1
		c-0.3,0.1-0.5,0.1-0.8,0.1c-0.2-0.4-0.3-1.7-0.2-3.8c0.1-1.9,0.1-4.2,0.1-6.8c-0.1-0.6-0.2-1.6-0.1-3c-0.6,0-1.1,0-1.4,0.1
		c-0.4,0-0.8,0-1,0c-0.1,0-0.4,0-0.6,0.1c-0.4,0.1-0.6,0.2-0.8,0.1c-0.4,0-0.5-0.1-0.4-0.4c0-0.5,0-1,0-1.5c0-0.3,0.1-0.5,0.4-0.8
		c0.1,0,0.2,0,0.4,0c0.3-0.1,0.5-0.1,0.8-0.1c0.4,0,0.6,0,0.9,0.1c2.9,0,5.8,0,8.8,0c0.4,0,0.5,0.1,0.5,0.3
		c-0.1,0.4-0.1,0.8-0.1,1.3c0.1,0.3,0.1,0.5,0.1,0.5c0,0.3-0.2,0.4-0.5,0.3c-0.5,0-1,0-1.6,0c-0.5-0.1-1.2-0.1-2.2-0.1
		C1247.2,104.2,1247.2,106.3,1247.2,107.5z"/>
	<path d="M1253.9,101l-0.2-0.2c-0.3-0.5-0.4-1-0.4-1.4c0.1-0.9,1.4-1.4,4-1.5c6.9,0.2,10.5,2.7,10.8,7.6c-0.4,5.6-3.4,8.5-9.2,8.7
		c-3.3,0-5.1-0.4-5.3-1.3c-0.2-0.4-0.2-0.8,0-1.4c0.1-0.2,0.3-0.5,0.4-1c0-0.6,0-2.1,0-4.7C1253.9,103.1,1253.9,101.5,1253.9,101z
		 M1256.8,106v2.9c-0.1,1.3,0.1,2.1,0.5,2.4c0,0.1,0.1,0.1,0.2,0.1c0.3,0,0.5,0,0.6,0c4.6-0.1,7-2,7.1-5.8c-0.4-2.8-2.3-4.5-5.7-5.2
		c-1.2-0.1-2,0.1-2.5,0.5c-0.1,0.1-0.3,1.3-0.3,3.5C1256.8,105.3,1256.8,105.9,1256.8,106z"/>
	<path d="M1272.8,109.9c1.6,0.1,2.4,0.8,2.5,2.3c-0.1,1.3-0.9,2-2.5,2.1c-1.6-0.1-2.4-0.7-2.4-1.9
		C1270.5,110.8,1271.3,110,1272.8,109.9z"/>
</g>
<g>
	<path d="M1018.1,10.4c1.5,0.2,2.9,0.8,4.1,1.8c3,7.5,5.8,15.2,8.2,23.1c1.5,7.2,3.1,14.4,4.8,21.7c0.2,0.5,0.5,0.9,1.1,1.4
		c1.8-5.5,3.5-11,5-16.5c3.4-7.9,6.7-15.9,10.1-23.8c1.1-1.2,2.3-2.1,3.7-2.7h1.4c1.1,0.6,2.2,1.4,3.4,2.3
		c0.5,8.2,0.9,16.6,1.4,25.2c-0.2,9.8-0.1,19.5,0.2,29.3c0.2,1.8,0.5,3.7,0.9,5.7c0,1.7-0.1,3.4-0.2,5c-0.5,0.9-0.9,1.8-1.4,2.7
		c-1.2,0.8-2.5,1.1-3.9,1.1c-1.8-1.2-3.5-2.4-5-3.7c-0.6-2.6-0.8-5.2-0.7-7.8c0.5-7.5,0.6-14.8,0.5-22c-0.3-1.1-0.5-2.1-0.7-3.2
		c-0.2-2.1,0-4,0.5-5.7c-0.3-0.6-0.6-0.7-0.9-0.2c-0.5,0.9-0.9,1.8-1.3,2.7c-0.4,0.9-0.6,2.1-0.6,3.4c-2.4,7.2-4.7,14.5-6.6,22
		c-1.4,1.8-2.7,3.5-4.1,5h-2.1c-1.4-0.9-2.7-1.6-4.1-2.1c-0.6-0.6-1.1-1.2-1.6-1.8c-1.1-2.9-2.1-5.7-3.2-8.5
		c-2.1-7.6-3.8-15.3-5-23.1c-1.1-2.1-2-4.3-2.7-6.4c-0.5,0.8-0.8,1.7-0.9,2.7c-0.2,8.7-0.6,17.3-1.4,25.9v13.7
		c-0.3,1.2-0.6,2.5-0.9,3.9c-1.1,0.9-2.1,1.9-3,3h-1.6c-0.8-0.5-1.3-1-1.6-1.6c-0.2-1.7-0.5-3.1-1.1-4.3v-9.6
		c0.9-14.6,1.9-29.2,3-43.7c0.8-2.6,1.1-5.3,1.1-8c1.1-2.4,2.2-4.7,3.4-6.9C1016.7,10.3,1017.4,10.2,1018.1,10.4z"/>
	<path d="M1117,9.9c1.2,0.8,2.4,1.8,3.4,3.2c0.8,3.1,1.8,6.1,3,9.2c1.5,6.6,3,13.4,4.3,20.4c0.2,4.6,0.8,9.1,1.8,13.5
		c1.4,5.9,2.7,12.1,4.1,18.3c0,1.7-0.1,3.4-0.2,5c-0.5,0.5-0.9,0.9-1.4,1.4h-3c-1.4-0.9-2.9-1.5-4.6-1.8c-0.9-1.4-1.5-2.8-1.8-4.3
		c-0.6-6.3-1.5-12.2-2.7-17.8c-0.5-0.8-1-1.1-1.6-1.1c-2.4,2.1-5.1,3.8-8,5c-2.6,0.2-5,0.5-7.1,1.1c-1.4,0-2.6-0.2-3.7-0.5
		c-0.3,0.3-0.7,0.7-1.1,1.1c-1.5,4.7-3,9.4-4.3,14c-0.5,2.1-0.8,4.3-1.1,6.4c-0.5,0.8-0.9,1.5-1.4,2.1c-1.4,0.6-2.8,1-4.3,1.1
		c-2-0.6-3.7-1.4-5-2.5c0-2.3-0.2-4.4-0.5-6.4c0.9-2.3,1.6-4.6,2.1-6.9c0.8-1.7,1.6-3.2,2.5-4.6c0.3-1.8,0.7-3.6,1.1-5.3
		c-0.9-0.6-1.8-1-2.5-1.1c-0.8-0.9-1.1-1.8-1.1-2.7c1.5-1.2,3.4-2,5.7-2.3c0.9-1.5,1.8-3,2.5-4.6c1.8-5.6,3.9-11.1,6.2-16.2
		c4-7,7.6-14.2,11-21.5c1.7-0.6,3.3-1.2,4.8-1.8C1115,10,1116,9.9,1117,9.9z M1111.8,28.1c-0.5,0.4-0.8,0.9-1.1,1.5
		c-0.2,1.1-0.4,2.1-0.7,3.2c-2.1,4.9-4.4,9.8-6.9,14.6c-0.5,1.1-0.7,2.1-0.7,3.1c0,1,0.5,1.6,1.6,1.9c3.4-0.8,6.7-1.5,10.1-2.3h3.4
		c0.5-0.5,0.8-0.9,1.1-1.4v-3.9c-1.5-5.5-2.8-10.8-3.9-16c-0.5-0.6-0.9-1-1.4-1.1C1112.8,27.6,1112.2,27.7,1111.8,28.1z"/>
	<path d="M1159.6,10.6c2.1,2.7,4.1,5.7,5.9,8.9c2.1,7.3,4.3,14.7,6.4,22.2c0.3,0.5,0.8,1.1,1.4,1.8c2.6-3.4,5.2-6.8,7.8-10.3
		c0.6-0.8,1.3-1.3,2.1-1.6c0.3-0.8,0.7-1.5,1.1-2.3c3.2-3.2,6.3-6.5,9.4-9.8c1.1-0.8,2.3-1.2,3.7-1.4c1.4,0.5,2.9,0.5,4.6,0.2
		c0.9,2.3,1.6,4.7,2.1,7.3c-0.5,0.9-0.9,1.8-1.4,2.7c-3.1,2.1-5.9,4.5-8.5,7.1c-3.7,4.1-7.3,8.3-11,12.6c-0.9,0.5-1.8,0.8-2.7,1.1
		c-1.5,1.4-2.7,3-3.4,4.8c-0.5,7-1.1,14.2-1.8,21.5c-0.3,0.8-0.8,1.3-1.6,1.6c-0.2,1.5-0.5,3-1.1,4.3c-2,1.4-3.5,3.1-4.6,5
		c-1.2-1.1-2.3-2.3-3.2-3.7c0.5-8.5,1-17.1,1.6-25.6c-0.8-0.5-1.5-0.8-2.1-1.1c0.8-1.8,1.7-3.5,2.7-5c0-0.8,0.1-1.4,0.2-2.1
		c-2.4-3-4.5-6.3-6.2-9.8c-2.3-6.1-4.3-12.2-5.9-18.3c-0.5-0.9-1-1.6-1.6-2.1c-0.2-1.4-0.2-2.5-0.2-3.4c0.8-1.2,1.4-2.4,1.8-3.4
		c0.6-0.6,1.4-1.1,2.3-1.4C1158,10.6,1158.7,10.6,1159.6,10.6z"/>
	<path d="M1258.5,9.9c1.2,0.8,2.4,1.8,3.4,3.2c0.8,3.1,1.8,6.1,3,9.2c1.5,6.6,3,13.4,4.3,20.4c0.2,4.6,0.8,9.1,1.8,13.5
		c1.4,5.9,2.7,12.1,4.1,18.3c0,1.7-0.1,3.4-0.2,5c-0.5,0.5-0.9,0.9-1.4,1.4h-3c-1.4-0.9-2.9-1.5-4.6-1.8c-0.9-1.4-1.5-2.8-1.8-4.3
		c-0.6-6.3-1.5-12.2-2.7-17.8c-0.5-0.8-1-1.1-1.6-1.1c-2.4,2.1-5.1,3.8-8,5c-2.6,0.2-5,0.5-7.1,1.1c-1.4,0-2.6-0.2-3.7-0.5
		c-0.3,0.3-0.7,0.7-1.1,1.1c-1.5,4.7-3,9.4-4.3,14c-0.5,2.1-0.8,4.3-1.1,6.4c-0.5,0.8-0.9,1.5-1.4,2.1c-1.4,0.6-2.8,1-4.3,1.1
		c-2-0.6-3.7-1.4-5-2.5c0-2.3-0.2-4.4-0.5-6.4c0.9-2.3,1.6-4.6,2.1-6.9c0.8-1.7,1.6-3.2,2.5-4.6c0.3-1.8,0.7-3.6,1.1-5.3
		c-0.9-0.6-1.8-1-2.5-1.1c-0.8-0.9-1.1-1.8-1.1-2.7c1.5-1.2,3.4-2,5.7-2.3c0.9-1.5,1.8-3,2.5-4.6c1.8-5.6,3.9-11.1,6.2-16.2
		c4-7,7.6-14.2,11-21.5c1.7-0.6,3.3-1.2,4.8-1.8C1256.5,10,1257.5,9.9,1258.5,9.9z M1253.3,28.1c-0.5,0.4-0.8,0.9-1.1,1.5
		c-0.2,1.1-0.4,2.1-0.7,3.2c-2.1,4.9-4.4,9.8-6.9,14.6c-0.5,1.1-0.7,2.1-0.7,3.1c0,1,0.5,1.6,1.6,1.9c3.4-0.8,6.7-1.5,10.1-2.3h3.4
		c0.5-0.5,0.8-0.9,1.1-1.4v-3.9c-1.5-5.5-2.8-10.8-3.9-16c-0.5-0.6-0.9-1-1.4-1.1C1254.3,27.6,1253.7,27.7,1253.3,28.1z"/>
</g>
<g>
	<path class="st2" d="M7753,2870.5c8.7,0.9,16.5,4.4,23.5,10.4c17.4,42.6,33,86.5,47,131.7c8.7,40.9,17.8,82.2,27.4,123.9
		c0.9,2.6,3,5.2,6.5,7.8c10.4-31.3,20-62.6,28.7-93.9c19.1-45.2,38.3-90.4,57.4-135.7c6.1-7,13-12.2,20.9-15.7h7.8
		c6.1,3.5,12.6,7.8,19.6,13c2.6,47,5.2,94.8,7.8,143.5c-0.9,55.7-0.4,111.3,1.3,167c0.9,10.4,2.6,21.3,5.2,32.6
		c0,9.6-0.4,19.1-1.3,28.7c-2.6,5.2-5.2,10.4-7.8,15.7c-7,4.4-14.3,6.5-22.2,6.5c-10.4-7-20-13.9-28.7-20.9
		c-3.5-14.8-4.8-29.6-3.9-44.4c2.6-42.6,3.5-84.3,2.6-125.2c-1.8-6.1-3.1-12.2-3.9-18.3c-0.9-12.2,0-23,2.6-32.6
		c-1.8-3.5-3.5-3.9-5.2-1.3c-2.6,5.2-5,10.4-7.2,15.7c-2.2,5.2-3.3,11.7-3.3,19.6c-13.9,40.9-26.5,82.6-37.8,125.2
		c-7.8,10.4-15.7,20-23.5,28.7h-11.7c-7.8-5.2-15.7-9.1-23.5-11.7c-3.5-3.5-6.5-7-9.1-10.4c-6.1-16.5-12.2-32.6-18.3-48.3
		c-12.2-43.5-21.7-87.4-28.7-131.7c-6.1-12.2-11.3-24.3-15.7-36.5c-2.6,4.4-4.4,9.6-5.2,15.7c-0.9,49.6-3.5,98.7-7.8,147.4v78.3
		c-1.8,7-3.5,14.3-5.2,22.2c-6.1,5.2-11.7,10.9-17,17h-9.1c-4.4-2.6-7.4-5.6-9.1-9.1c-0.9-9.6-3.1-17.8-6.5-24.8v-54.8
		c5.2-83.5,10.9-166.5,17-249.1c4.3-14.8,6.5-30,6.5-45.7c6.1-13.9,12.6-26.9,19.6-39.1C7745.2,2870,7748.7,2869.6,7753,2870.5z"/>
	<path class="st2" d="M8316.8,2867.9c6.9,4.4,13.5,10.4,19.6,18.3c4.3,17.4,10,34.8,17,52.2c8.7,37.4,17,76.1,24.8,116.1
		c0.9,26.1,4.3,51.7,10.4,77c7.8,33.9,15.7,68.7,23.5,104.4c0,9.6-0.4,19.1-1.3,28.7c-2.6,2.6-5.2,5.2-7.8,7.8h-17
		c-7.8-5.2-16.5-8.7-26.1-10.4c-5.2-7.8-8.7-16.1-10.4-24.8c-3.5-35.6-8.7-69.6-15.7-101.7c-2.6-4.3-5.7-6.5-9.1-6.5
		c-13.9,12.2-29.1,21.7-45.7,28.7c-14.8,0.9-28.3,3.1-40.4,6.5c-7.8,0-14.8-0.9-20.9-2.6c-1.8,1.8-3.9,3.9-6.5,6.5
		c-8.7,27-17,53.5-24.8,79.6c-2.6,12.2-4.8,24.4-6.5,36.5c-2.6,4.4-5.2,8.3-7.8,11.7c-7.8,3.5-16.1,5.7-24.8,6.5
		c-11.3-3.5-20.9-8.3-28.7-14.3c0-13-0.9-25.2-2.6-36.5c5.2-13,9.1-26.1,11.7-39.1c4.3-9.6,9.1-18.3,14.3-26.1
		c1.7-10.4,3.9-20.4,6.5-30c-5.2-3.5-10-5.6-14.3-6.5c-4.4-5.2-6.5-10.4-6.5-15.7c8.7-7,19.6-11.3,32.6-13
		c5.2-8.7,10-17.4,14.3-26.1c10.4-32.2,22.2-63,35.2-92.6c22.6-40,43.5-80.9,62.6-122.6c9.6-3.5,18.7-7,27.4-10.4
		C8305.1,2868.3,8310.7,2867.9,8316.8,2867.9z M8286.8,2971.6c-2.6,2.2-4.8,5-6.5,8.5c-0.9,6.1-2.2,12.2-3.9,18.3
		c-12.2,27.8-25.2,55.7-39.1,83.5c-2.6,6.1-3.9,12-3.9,17.6c0,5.7,3,9.4,9.1,11.1c19.1-4.3,38.3-8.7,57.4-13h19.6
		c2.6-2.6,4.8-5.2,6.5-7.8v-22.2c-8.7-31.3-16.1-61.7-22.2-91.3c-2.6-3.5-5.2-5.6-7.8-6.5
		C8292.5,2968.7,8289.4,2969.4,8286.8,2971.6z"/>
	<path class="st2" d="M8559.7,2871.8c12.2,15.7,23.5,32.6,33.9,50.9c12.2,41.7,24.3,83.9,36.5,126.5c1.7,2.6,4.3,6.1,7.8,10.4
		c14.8-19.1,29.6-38.7,44.3-58.7c3.5-4.3,7.4-7.4,11.7-9.1c1.7-4.3,3.9-8.7,6.5-13c18.3-18.3,36.1-37,53.5-56.1
		c6.1-4.3,13-7,20.9-7.8c7.8,2.6,16.5,3.1,26.1,1.3c5.2,13,9.1,27,11.7,41.7c-2.6,5.2-5.2,10.4-7.8,15.7
		c-17.4,12.2-33.5,25.7-48.3,40.4c-20.9,23.5-41.7,47.4-62.6,71.7c-5.2,2.6-10.4,4.8-15.7,6.5c-8.7,7.8-15.2,17-19.6,27.4
		c-2.6,40-6.1,80.9-10.4,122.6c-1.8,4.4-4.8,7.4-9.1,9.1c-0.9,8.7-3.1,17-6.5,24.8c-11.3,7.8-20,17.4-26.1,28.7
		c-7-6.1-13-13-18.3-20.9c2.6-48.7,5.6-97.4,9.1-146.1c-4.4-2.6-8.3-4.8-11.7-6.5c4.3-10.4,9.6-20,15.7-28.7c0-4.3,0.4-8.3,1.3-11.7
		c-13.9-17.4-25.7-36.1-35.2-56.1c-13-34.8-24.4-69.6-33.9-104.4c-2.6-5.2-5.7-9.1-9.1-11.7c-0.9-7.8-1.3-14.3-1.3-19.6
		c4.3-7,7.8-13.5,10.4-19.6c3.5-3.5,7.8-6.1,13-7.8C8550.1,2871.8,8554.5,2871.8,8559.7,2871.8z"/>
	<path class="st2" d="M9123.5,2867.9c6.9,4.4,13.5,10.4,19.6,18.3c4.3,17.4,10,34.8,17,52.2c8.7,37.4,17,76.1,24.8,116.1
		c0.9,26.1,4.3,51.7,10.4,77c7.8,33.9,15.7,68.7,23.5,104.4c0,9.6-0.4,19.1-1.3,28.7c-2.6,2.6-5.2,5.2-7.8,7.8h-17
		c-7.8-5.2-16.5-8.7-26.1-10.4c-5.2-7.8-8.7-16.1-10.4-24.8c-3.5-35.6-8.7-69.6-15.7-101.7c-2.6-4.3-5.7-6.5-9.1-6.5
		c-13.9,12.2-29.1,21.7-45.7,28.7c-14.8,0.9-28.3,3.1-40.4,6.5c-7.8,0-14.8-0.9-20.9-2.6c-1.8,1.8-3.9,3.9-6.5,6.5
		c-8.7,27-17,53.5-24.8,79.6c-2.6,12.2-4.8,24.4-6.5,36.5c-2.6,4.4-5.2,8.3-7.8,11.7c-7.8,3.5-16.1,5.7-24.8,6.5
		c-11.3-3.5-20.9-8.3-28.7-14.3c0-13-0.9-25.2-2.6-36.5c5.2-13,9.1-26.1,11.7-39.1c4.3-9.6,9.1-18.3,14.3-26.1
		c1.7-10.4,3.9-20.4,6.5-30c-5.2-3.5-10-5.6-14.3-6.5c-4.4-5.2-6.5-10.4-6.5-15.7c8.7-7,19.6-11.3,32.6-13
		c5.2-8.7,10-17.4,14.3-26.1c10.4-32.2,22.2-63,35.2-92.6c22.6-40,43.5-80.9,62.6-122.6c9.6-3.5,18.7-7,27.4-10.4
		C9111.7,2868.3,9117.4,2867.9,9123.5,2867.9z M9093.5,2971.6c-2.6,2.2-4.8,5-6.5,8.5c-0.9,6.1-2.2,12.2-3.9,18.3
		c-12.2,27.8-25.2,55.7-39.1,83.5c-2.6,6.1-3.9,12-3.9,17.6c0,5.7,3,9.4,9.1,11.1c19.1-4.3,38.3-8.7,57.4-13h19.6
		c2.6-2.6,4.8-5.2,6.5-7.8v-22.2c-8.7-31.3-16.1-61.7-22.2-91.3c-2.6-3.5-5.2-5.6-7.8-6.5
		C9099.1,2968.7,9096.1,2969.4,9093.5,2971.6z"/>
</g>
<linearGradient id="SVGID_00000083053215770240493540000000771213528057963178_" gradientUnits="userSpaceOnUse" x1="147.9144" y1="235.9887" x2="147.9144" y2="235.9887">
	<stop  offset="0" style="stop-color:#35489C"/>
	<stop  offset="1" style="stop-color:#3599D6"/>
</linearGradient>
<path style="fill:url(#SVGID_00000083053215770240493540000000771213528057963178_);" d="M147.9,236"/>
</svg>
